# xmcd CD database file
#
# Track frame offsets:
#	150
#	15288
#	32438
#	49108
#	70198
#	88317
#	103878
#	120565
#	132244
#	144403
#	165440
#
# Disc length: 2417 seconds
#
# Revision: 0
# Processed by: cddbd v1.5.1PL0 Copyright (c) Steve Scherf et al.
# Submitted via: CDex 1.50
#
DISCID=8a096f0b
DTITLE=Stephen Farquhar - The Fires Of Midnight
DYEAR=2005
DGENRE=Country
TTITLE0=Rochford Road
TTITLE1=City Life
TTITLE2=Sing It All
TTITLE3=The Fires Of Midnight
TTITLE4=Isis Pine
TTITLE5=It Doesn't Matter
TTITLE6=A Wandering Minstrel
TTITLE7=Wild Night
TTITLE8=Love Of My Life
TTITLE9=Coolamon
TTITLE10=Tomorrow To Call
EXTD=YEAR: 2005
EXTT0=
EXTT1=
EXTT2=
EXTT3=
EXTT4=
EXTT5=
EXTT6=
EXTT7=
EXTT8=
EXTT9=
EXTT10=
PLAYORDER=
